# xmcd
#
# Track frame offsets: 
#        150
#        20749
#        36321
#        54897
#        73024
#        85160
#        98752
#        110985
#        130328
#        153281
#        169294
#
# Disc length: 2484 seconds
#
# Revision: 0
# Processed by: cddbd v1.5.2PL0 Copyright (c) Steve Scherf et al.
# Submitted via: ExactAudioCopyFreeDBPlugin 1.0
#
DISCID=9409b20b
DTITLE=Judith Hill - Back In Time
DYEAR=2015
DGENRE=R&B
TTITLE0=As Trains Go By
TTITLE1=Turn Up
TTITLE2=Angel In The Dark
TTITLE3=Beautiful Life
TTITLE4=Cure
TTITLE5=Love Trip
TTITLE6=My People
TTITLE7=Wild Tonight
TTITLE8=Cry, Cry, Cry
TTITLE9=Jammin' In The Basement
TTITLE10=Back In Time
EXTD=
EXTT0=
EXTT1=
EXTT2=
EXTT3=
EXTT4=
EXTT5=
EXTT6=
EXTT7=
EXTT8=
EXTT9=
EXTT10=
PLAYORDER=
